<svg width="24" height="24" viewBox="0 0 24 24" fill="none" xmlns="http://www.w3.org/2000/svg">
<path d="M21 19L15.846 13.846C16.7988 12.3979 17.1804 10.6477 16.917 8.93442C16.6535 7.22111 15.7637 5.66648 14.4199 4.57154C13.076 3.47659 11.3737 2.91923 9.64245 3.00735C7.91123 3.09547 6.27429 3.82281 5.04855 5.04855C3.82281 6.27429 3.09547 7.91123 3.00735 9.64245C2.91923 11.3737 3.47659 13.076 4.57154 14.4199C5.66648 15.7637 7.22111 16.6535 8.93442 16.917C10.6477 17.1804 12.3979 16.7988 13.846 15.846L19 21L21 19ZM4.99998 9.99998C4.99998 7.24298 7.24298 4.99998 9.99998 4.99998C12.757 4.99998 15 7.24298 15 9.99998C15 12.757 12.757 15 9.99998 15C7.24298 15 4.99998 12.757 4.99998 9.99998Z" fill="black"/>
</svg>
