<svg width="19" height="19" viewBox="0 0 19 19" fill="none" xmlns="http://www.w3.org/2000/svg">
<path d="M4.085 5.8069C5.035 5.8069 5.795 5.03503 5.795 4.0969C5.795 3.15878 5.02313 2.3869 4.085 2.3869C3.14688 2.3869 2.375 3.15878 2.375 4.0969C2.375 5.03503 3.14688 5.8069 4.085 5.8069ZM7.42188 7.10128V16.625H10.3669V11.9225C10.3669 10.6757 10.6044 9.47628 12.1363 9.47628C13.6681 9.47628 13.6681 10.9013 13.6681 11.9938V16.625H16.625V11.4C16.625 8.83503 16.0788 6.86378 13.0863 6.86378C11.6494 6.86378 10.6875 7.64753 10.2956 8.39565H10.26V7.0894H7.43375L7.42188 7.10128ZM2.6125 7.10128H5.56938V16.625H2.6125V7.10128Z" fill="white"/>
</svg>
