<svg width="19" height="19" viewBox="0 0 19 19" fill="none" xmlns="http://www.w3.org/2000/svg">
<path d="M17.7808 4.75002C17.1713 5.0271 16.5142 5.20919 15.8333 5.29627C16.53 4.87669 17.0683 4.21169 17.3217 3.4121C16.6646 3.80794 15.9363 4.08502 15.1683 4.24335C14.5429 3.56252 13.6642 3.16669 12.6667 3.16669C10.8063 3.16669 9.28626 4.68669 9.28626 6.56294C9.28626 6.8321 9.31793 7.09335 9.37334 7.33877C6.55501 7.19627 4.04543 5.84252 2.37501 3.7921C2.08209 4.29085 1.91584 4.87669 1.91584 5.49419C1.91584 6.67377 2.50959 7.71877 3.42793 8.31252C2.86584 8.31252 2.34334 8.15419 1.88418 7.91669V7.94044C1.88418 9.5871 3.05584 10.9646 4.60751 11.2734C4.10942 11.4103 3.58629 11.4292 3.07959 11.3288C3.29462 12.0036 3.71573 12.5942 4.28373 13.0173C4.85174 13.4405 5.53807 13.675 6.24626 13.6879C5.04583 14.6383 3.55777 15.152 2.02668 15.1446C1.75751 15.1446 1.48834 15.1288 1.21918 15.0971C2.72334 16.0629 4.51251 16.625 6.42834 16.625C12.6667 16.625 16.0946 11.4475 16.0946 6.95877C16.0946 6.80835 16.0946 6.66585 16.0867 6.51544C16.7517 6.04044 17.3217 5.43877 17.7808 4.75002Z" fill="white"/>
</svg>
